<svg width="20" height="20" viewBox="0 0 20 20" fill="none" xmlns="http://www.w3.org/2000/svg">
<path d="M8.94018 4.08019C9.29095 4.02642 9.64532 3.99967 10.0002 4.00019C13.1802 4.00019 16.1702 6.29018 17.9102 10.0002C17.6441 10.5648 17.3435 11.1125 17.0102 11.6402C16.9044 11.804 16.8487 11.9952 16.8502 12.1902C16.8524 12.4084 16.926 12.6199 17.0596 12.7925C17.1933 12.965 17.3798 13.089 17.5905 13.1457C17.8013 13.2024 18.0248 13.1885 18.227 13.1063C18.4291 13.024 18.5988 12.8779 18.7102 12.6902C19.1761 11.9581 19.5808 11.1888 19.9202 10.3902C19.9738 10.2654 20.0015 10.131 20.0015 9.99518C20.0015 9.85936 19.9738 9.72496 19.9202 9.60019C17.9002 4.91019 14.1002 2.00019 10.0002 2.00019C9.53085 1.99782 9.06227 2.03798 8.60019 2.12019C8.46886 2.14251 8.34322 2.19048 8.23044 2.26136C8.11766 2.33224 8.01994 2.42464 7.94287 2.53329C7.8658 2.64193 7.81088 2.76469 7.78125 2.89456C7.75162 3.02443 7.74786 3.15886 7.77018 3.29019C7.79251 3.42151 7.84048 3.54715 7.91136 3.65993C7.98224 3.77271 8.07464 3.87043 8.18329 3.9475C8.29193 4.02457 8.41469 4.07949 8.54456 4.10912C8.67443 4.13875 8.80886 4.14251 8.94018 4.12019V4.08019ZM1.71019 0.290185C1.61695 0.196947 1.50626 0.122986 1.38443 0.0725256C1.26261 0.0220653 1.13204 -0.00390625 1.00019 -0.00390625C0.868326 -0.00390625 0.737758 0.0220653 0.615936 0.0725256C0.494114 0.122986 0.383424 0.196947 0.290185 0.290185C0.101882 0.478489 -0.00390625 0.733884 -0.00390625 1.00019C-0.00390625 1.26649 0.101882 1.52188 0.290185 1.71019L3.39019 4.80019C1.97576 6.16171 0.850042 7.79417 0.0801853 9.60019C0.025122 9.72635 -0.00329947 9.86253 -0.00329947 10.0002C-0.00329947 10.1378 0.025122 10.274 0.0801853 10.4002C2.10019 15.0902 5.90019 18.0002 10.0002 18.0002C11.7973 17.9878 13.552 17.4527 15.0502 16.4602L18.2902 19.7102C18.3831 19.8039 18.4937 19.8783 18.6156 19.9291C18.7375 19.9798 18.8682 20.006 19.0002 20.006C19.1322 20.006 19.2629 19.9798 19.3848 19.9291C19.5066 19.8783 19.6172 19.8039 19.7102 19.7102C19.8039 19.6172 19.8783 19.5066 19.9291 19.3848C19.9798 19.2629 20.006 19.1322 20.006 19.0002C20.006 18.8682 19.9798 18.7375 19.9291 18.6156C19.8783 18.4937 19.8039 18.3831 19.7102 18.2902L1.71019 0.290185ZM8.07018 9.48018L10.5202 11.9302C10.3512 11.9787 10.176 12.0022 10.0002 12.0002C9.46975 12.0002 8.96104 11.7895 8.58597 11.4144C8.2109 11.0393 8.00019 10.5306 8.00019 10.0002C7.99814 9.82437 8.02172 9.6492 8.07018 9.48018ZM10.0002 16.0002C6.82018 16.0002 3.83019 13.7102 2.10019 10.0002C2.74627 8.57393 3.66326 7.28676 4.80019 6.21019L6.57019 8.00019C6.15443 8.75898 5.99592 9.63213 6.11844 10.4886C6.24096 11.3452 6.6379 12.1388 7.24971 12.7507C7.86152 13.3625 8.65522 13.7594 9.51173 13.8819C10.3682 14.0044 11.2414 13.8459 12.0002 13.4302L13.5902 15.0002C12.5013 15.6411 11.2636 15.9858 10.0002 16.0002Z" fill="black"/>
</svg>
